<svg width="36" height="23" viewBox="0 0 36 23" fill="none" xmlns="http://www.w3.org/2000/svg">
<g clip-path="url(#clip0_14535_34261)">
<path d="M32.9898 20.4853L31.3925 18.7067L29.7338 20.4853H19.4744V12.2053H16.2184L20.273 2.944H24.2048L25.6177 6.13333V2.944H30.5324L31.3925 5.336L32.2526 2.944H36V1.53333C36 0.674667 35.3242 0 34.4642 0H1.53584C0.675768 0 0 0.674667 0 1.53333V21.4667C0 22.3253 0.675768 23 1.53584 23H34.4642C35.3242 23 36 22.3253 36 21.4667V20.4853H32.9898Z" fill="#0071CE"/>
<path d="M33.4198 19.5041H36L32.6212 15.8855L36 12.3281H33.4812L31.3311 14.6588L29.2423 12.3281H26.6621L30.1024 15.9468L26.6621 19.5041H29.1809L31.3311 17.1735L33.4198 19.5041Z" fill="#0071CE"/>
<path d="M22.5459 17.8481V16.7441H26.6006V15.0881H22.5459V13.9841H26.662V12.3281H20.5801V19.5041H26.662V17.8481H22.5459Z" fill="#0071CE"/>
<path d="M34.0956 11.2852H35.9386V4.04785L32.9898 4.10918L31.3925 8.58652L29.7338 4.10918H26.6621V11.2852H28.628V6.25585L30.471 11.2852H32.1911L34.0956 6.25585V11.2852Z" fill="#0071CE"/>
<path d="M23.5297 4.10938H21.0109L17.8164 11.2854H19.9666L20.5809 9.87471H23.8983L24.5127 11.2854H26.7243L23.5297 4.10938ZM21.2567 8.21871L22.2396 5.88804L23.2225 8.21871H21.2567Z" fill="#0071CE"/>
<path d="M34.2188 15.7009L36.0003 17.6636V13.7383L34.2188 15.7009Z" fill="#0071CE"/>
</g>
<defs>
<clipPath id="clip0_14535_34261">
<rect width="36" height="23" fill="white"/>
</clipPath>
</defs>
</svg>
