<svg width="26" height="23" viewBox="0 0 26 23" fill="none" xmlns="http://www.w3.org/2000/svg">
<g clip-path="url(#clip0_14535_34305)">
<path d="M13.641 9.81094C13.641 10.5836 13.167 11.0283 12.3319 11.0283H11.2351V8.59355H12.3365C13.167 8.59355 13.641 9.03379 13.641 9.81094ZM15.7851 12.623C15.7851 12.9959 16.1101 13.2385 16.6201 13.2385C17.2701 13.2385 17.7576 12.8297 17.7576 12.2547V11.9088L16.6969 11.9762C16.0965 12.0166 15.7851 12.2367 15.7851 12.623ZM26 3.54883V19.3613C26 20.5518 25.0295 21.5176 23.8333 21.5176H2.16667C0.970486 21.5176 0 20.5518 0 19.3613V3.54883C0 2.3584 0.970486 1.39258 2.16667 1.39258H23.8333C25.0295 1.39258 26 2.3584 26 3.54883ZM5.76875 8.85859C6.14792 8.89004 6.52708 8.66992 6.76632 8.39141C7.00104 8.10391 7.15451 7.71758 7.11389 7.32676C6.77986 7.34023 6.36458 7.54687 6.12535 7.83437C5.90868 8.08145 5.72361 8.48125 5.76875 8.85859ZM8.50417 12.2053C8.49514 12.1963 7.61944 11.8639 7.61042 10.8576C7.60139 10.0176 8.30104 9.61328 8.33264 9.59082C7.93542 9.00684 7.32153 8.94395 7.10938 8.93047C6.55868 8.89902 6.08924 9.24043 5.82743 9.24043C5.56111 9.24043 5.16389 8.94395 4.73056 8.95293C4.16632 8.96191 3.63819 9.28086 3.35382 9.78848C2.7625 10.8037 3.20035 12.3041 3.77361 13.1307C4.05347 13.5395 4.39201 13.9887 4.83437 13.9707C5.25417 13.9527 5.42118 13.7012 5.92674 13.7012C6.43681 13.7012 6.58125 13.9707 7.02361 13.9662C7.48403 13.9572 7.7684 13.5574 8.05278 13.1486C8.36424 12.6814 8.49514 12.2322 8.50417 12.2053ZM14.616 9.80645C14.616 8.61152 13.7809 7.79395 12.5892 7.79395H10.2781V13.9213H11.2351V11.8279H12.5576C13.7674 11.8279 14.616 11.0014 14.616 9.80645ZM18.6785 10.8711C18.6785 9.98613 17.9653 9.41563 16.8729 9.41563C15.8573 9.41563 15.108 9.99512 15.0809 10.7857H15.9431C16.0153 10.4084 16.3674 10.1613 16.8458 10.1613C17.4326 10.1613 17.7576 10.4309 17.7576 10.934V11.2709L16.566 11.3428C15.4556 11.4102 14.8552 11.8639 14.8552 12.65C14.8552 13.4451 15.4736 13.9707 16.3628 13.9707C16.9632 13.9707 17.5184 13.6697 17.7712 13.1891H17.7892V13.9258H18.674V10.8711H18.6785ZM23.2917 9.47402H22.3212L21.1972 13.0947H21.1792L20.0552 9.47402H19.0486L20.6691 13.9348L20.5833 14.2043C20.4389 14.6625 20.1997 14.8422 19.7753 14.8422C19.6986 14.8422 19.5542 14.8332 19.4955 14.8287V15.5654C19.5497 15.5834 19.7889 15.5879 19.8611 15.5879C20.7955 15.5879 21.2333 15.233 21.617 14.1594L23.2917 9.47402Z" fill="black"/>
</g>
<defs>
<clipPath id="clip0_14535_34305">
<rect width="26" height="23" fill="white"/>
</clipPath>
</defs>
</svg>
