<svg width="34" height="23" viewBox="0 0 34 23" fill="none" xmlns="http://www.w3.org/2000/svg">
<g clip-path="url(#clip0_14535_34244)">
<path d="M32.8667 0H1.13333C0.507411 0 0 0.514872 0 1.15V21.85C0 22.4851 0.507411 23 1.13333 23H32.8667C33.4926 23 34 22.4851 34 21.85V1.15C34 0.514872 33.4926 0 32.8667 0Z" fill="white"/>
<path d="M11.8222 3.68359C7.58126 3.68359 4.13086 7.18971 4.13086 11.4993C4.13086 15.8093 7.58126 19.3158 11.8222 19.3158H22.1802C26.4206 19.3158 29.8705 15.8093 29.8705 11.4993C29.8705 7.18971 26.4206 3.68359 22.1802 3.68359H11.8222Z" fill="white"/>
<path d="M21.6702 15.5356L18.8072 11.8584C18.2776 14.3656 16.5447 15.5352 13.2963 15.5352H6.82227C7.99345 17.0309 9.7995 17.9917 11.8225 17.9917H22.1805C24.2028 17.9917 26.0085 17.0313 27.1797 15.5356H21.6702Z" fill="#E41D27"/>
<path d="M23.9902 11.0228L27.4346 15.1859C28.148 14.1382 28.5668 12.8682 28.5668 11.5001C28.5668 10.0563 28.1002 8.72093 27.3125 7.6416L23.9902 11.0228Z" fill="#E41D27"/>
<path d="M9.99276 10.0664L9.07422 12.6331H12.7801C13.8757 12.6331 14.2072 12.1721 14.4523 11.2847C14.695 10.407 14.0855 10.0664 13.3368 10.0664H9.99276Z" fill="#E41D27"/>
<path d="M14.2299 7.29007C16.8021 7.29007 18.7402 7.9552 18.9396 10.1577L21.6467 7.28976H27.037C25.8644 5.89489 24.1218 5.00879 22.1795 5.00879H11.8215C9.87839 5.00879 8.13555 5.89489 6.96289 7.29007H14.2299Z" fill="#E41D27"/>
</g>
<defs>
<clipPath id="clip0_14535_34244">
<rect width="34" height="23" fill="white"/>
</clipPath>
</defs>
</svg>
