<svg width="35" height="23" viewBox="0 0 35 23" fill="none" xmlns="http://www.w3.org/2000/svg">
<g clip-path="url(#clip0_14535_34289)">
<path d="M33.8333 0H1.16667C0.522334 0 0 0.514872 0 1.15V21.85C0 22.4851 0.522334 23 1.16667 23H33.8333C34.4777 23 35 22.4851 35 21.85V1.15C35 0.514872 34.4777 0 33.8333 0Z" fill="white"/>
<path fill-rule="evenodd" clip-rule="evenodd" d="M8.45898 22.9998H33.8346C34.4786 22.9998 35.0007 22.4855 35.0007 21.8486V13.7998C35.0007 13.7998 25.6269 20.1554 8.45898 22.9998Z" fill="#E7792B"/>
<path fill-rule="evenodd" clip-rule="evenodd" d="M32.9842 9.73572C32.9842 8.83012 32.3425 8.30762 31.2239 8.30762H29.7852V13.1447H30.7544V11.2015H30.8809L32.2238 13.1447H33.4167L31.8507 11.1068C32.5817 10.9624 32.9842 10.4763 32.9842 9.73572ZM31.0376 10.5346H30.7544V9.06949H31.053C31.6571 9.06949 31.9858 9.31579 31.9858 9.78635C31.9858 10.2728 31.6571 10.5346 31.0376 10.5346Z" fill="#1A1918"/>
<path fill-rule="evenodd" clip-rule="evenodd" d="M26.3906 13.1447H29.1421V12.3258H27.3601V11.0201H29.0764V10.2008H27.3601V9.12725H29.1421V8.30762H26.3906V13.1447Z" fill="#1A1918"/>
<path fill-rule="evenodd" clip-rule="evenodd" d="M23.5581 11.5566L22.2318 8.30762H21.1719L23.2827 13.2687H23.8046L25.9533 8.30762H24.9016L23.5581 11.5566Z" fill="#1A1918"/>
<path d="M18.8464 13.4317C20.3322 13.4317 21.5367 12.2604 21.5367 10.8155C21.5367 9.37055 20.3322 8.19922 18.8464 8.19922C17.3607 8.19922 16.1562 9.37055 16.1562 10.8155C16.1562 12.2604 17.3607 13.4317 18.8464 13.4317Z" fill="url(#paint0_radial_14535_34289)"/>
<path fill-rule="evenodd" clip-rule="evenodd" d="M12.0234 10.7295C12.0234 12.1512 13.1714 13.2536 14.6487 13.2536C15.0663 13.2536 15.4239 13.1738 15.865 12.9718V11.8612C15.4771 12.2387 15.1337 12.391 14.6939 12.391C13.7167 12.391 13.0232 11.702 13.0232 10.7224C13.0232 9.79378 13.7386 9.06123 14.6487 9.06123C15.1114 9.06123 15.4617 9.22177 15.865 9.60541V8.49537C15.4392 8.28533 15.0889 8.19824 14.6716 8.19824C13.2018 8.19824 12.0234 9.32306 12.0234 10.7295Z" fill="#1A1918"/>
<path fill-rule="evenodd" clip-rule="evenodd" d="M10.2862 10.1637C9.70397 9.95426 9.53314 9.81598 9.53314 9.55473C9.53314 9.24992 9.8377 9.01857 10.2558 9.01857C10.5466 9.01857 10.7854 9.13463 11.0381 9.41026L11.5458 8.76387C11.1286 8.40898 10.6296 8.22754 10.0842 8.22754C9.20417 8.22754 8.53296 8.8218 8.53296 9.61358C8.53296 10.28 8.8456 10.621 9.75662 10.94C10.1365 11.0703 10.3298 11.157 10.4274 11.2155C10.6211 11.3386 10.7182 11.5128 10.7182 11.7159C10.7182 12.1078 10.3978 12.3982 9.9649 12.3982C9.5022 12.3982 9.12959 12.1732 8.90612 11.7531L8.2793 12.3401C8.72628 12.9781 9.26315 13.2608 10.0014 13.2608C11.0095 13.2608 11.7168 12.609 11.7168 11.6726C11.7168 10.9041 11.3897 10.5562 10.2862 10.1637Z" fill="#1A1918"/>
<path fill-rule="evenodd" clip-rule="evenodd" d="M6.94336 8.30762H7.91356V13.1447H6.94336V8.30762Z" fill="#1A1918"/>
<path fill-rule="evenodd" clip-rule="evenodd" d="M3.82836 8.30762H2.4043V13.1447H3.82086C4.57412 13.1447 5.11793 12.9718 5.59545 12.5863C6.16289 12.1296 6.49839 11.4413 6.49839 10.7295C6.49839 9.30196 5.40176 8.30762 3.82836 8.30762ZM4.96172 11.9412C4.65675 12.209 4.26093 12.3258 3.63411 12.3258H3.37374V9.12725H3.63411C4.26093 9.12725 4.64121 9.23618 4.96172 9.51837C5.29722 9.80894 5.499 10.2591 5.499 10.7224C5.499 11.1868 5.29722 11.6508 4.96172 11.9412Z" fill="#1A1918"/>
<path fill-rule="evenodd" clip-rule="evenodd" d="M33.6025 8.48958C33.6025 8.40492 33.5427 8.3584 33.4372 8.3584H33.2969V8.78352H33.4013V8.6187L33.5235 8.78352H33.651L33.5072 8.60824C33.5687 8.59217 33.6025 8.54864 33.6025 8.48958ZM33.4188 8.54769H33.4013V8.43651H33.42C33.4716 8.43651 33.4984 8.45462 33.4984 8.49108C33.4984 8.52883 33.4713 8.54769 33.4188 8.54769Z" fill="#1A1918"/>
<path fill-rule="evenodd" clip-rule="evenodd" d="M33.4587 8.19922C33.2464 8.19922 33.0781 8.36404 33.0781 8.56981C33.0781 8.77554 33.2485 8.94057 33.4587 8.94057C33.6655 8.94057 33.835 8.77387 33.835 8.56981C33.835 8.36686 33.6655 8.19922 33.4587 8.19922ZM33.4573 8.87441C33.2905 8.87441 33.1537 8.73912 33.1537 8.57035C33.1537 8.40104 33.2887 8.26595 33.4573 8.26595C33.6235 8.26595 33.7592 8.40424 33.7592 8.57035C33.7592 8.73762 33.6235 8.87441 33.4573 8.87441Z" fill="#1A1918"/>
</g>
<defs>
<radialGradient id="paint0_radial_14535_34289" cx="0" cy="0" r="1" gradientTransform="matrix(-3.79164 -2.87502 2.87764 -3.68743 20.8537 12.6498)" gradientUnits="userSpaceOnUse">
<stop stop-color="#F59900"/>
<stop offset="0.210082" stop-color="#F39501"/>
<stop offset="0.908163" stop-color="#CE3C0B"/>
<stop offset="1" stop-color="#A4420A"/>
</radialGradient>
<clipPath id="clip0_14535_34289">
<rect width="35" height="23" fill="white"/>
</clipPath>
</defs>
</svg>
