<svg width="35" height="23" viewBox="0 0 35 23" fill="none" xmlns="http://www.w3.org/2000/svg">
<g clip-path="url(#clip0_14535_34252)">
<path d="M33.8333 0H1.16667C0.522334 0 0 0.514872 0 1.15V21.85C0 22.4851 0.522334 23 1.16667 23H33.8333C34.4777 23 35 22.4851 35 21.85V1.15C35 0.514872 34.4777 0 33.8333 0Z" fill="white"/>
<path d="M29.4288 16.9046C29.4288 18.9171 27.7661 20.5559 25.7245 20.5559H5.57031V6.09461C5.57031 4.08211 7.23281 2.44336 9.27448 2.44336H29.4288V16.9046Z" fill="white"/>
<path d="M22.8672 13.1964H24.3984C24.4422 13.1964 24.5443 13.182 24.588 13.182C24.8797 13.1245 25.1276 12.8658 25.1276 12.5064C25.1276 12.1614 24.8797 11.9027 24.588 11.8308C24.5443 11.8164 24.4568 11.8164 24.3984 11.8164H22.8672V13.1964Z" fill="url(#paint0_linear_14535_34252)"/>
<path d="M24.2234 3.66602C22.7651 3.66602 21.5693 4.83039 21.5693 6.28227V8.99914H25.3172C25.4047 8.99914 25.5068 8.99914 25.5797 9.01352C26.4255 9.05664 27.0526 9.48789 27.0526 10.2354C27.0526 10.8248 26.6297 11.3279 25.8422 11.4285V11.4573C26.7026 11.5148 27.3589 11.9891 27.3589 12.7223C27.3589 13.5129 26.6297 14.0304 25.6672 14.0304H21.5547V19.3491H25.4484C26.9068 19.3491 28.1026 18.1848 28.1026 16.7329V3.66602H24.2234Z" fill="url(#paint1_linear_14535_34252)"/>
<path d="M24.938 10.4079C24.938 10.0629 24.6901 9.83289 24.3984 9.78977C24.3693 9.78977 24.2964 9.77539 24.2526 9.77539H22.8672V11.0404H24.2526C24.2964 11.0404 24.3839 11.0404 24.3984 11.026C24.6901 10.9829 24.938 10.7529 24.938 10.4079Z" fill="url(#paint2_linear_14535_34252)"/>
<path d="M16.8866 3.66602C15.4283 3.66602 14.2324 4.83039 14.2324 6.28227V9.70352C14.9033 9.14289 16.0699 8.78352 17.9512 8.86977C18.9574 8.91289 20.0366 9.18602 20.0366 9.18602V10.2929C19.497 10.0198 18.8553 9.77539 18.0241 9.71789C16.5949 9.61727 15.7345 10.3073 15.7345 11.5148C15.7345 12.7366 16.5949 13.4266 18.0241 13.3116C18.8553 13.2541 19.497 12.9954 20.0366 12.7366V13.8435C20.0366 13.8435 18.972 14.1166 17.9512 14.1598C16.0699 14.246 14.9033 13.8866 14.2324 13.326V19.3635H18.1262C19.5845 19.3635 20.7803 18.1991 20.7803 16.7473V3.66602H16.8866Z" fill="url(#paint3_linear_14535_34252)"/>
<path d="M9.55156 3.66602C8.09323 3.66602 6.8974 4.83039 6.8974 6.28227V12.7366C7.64115 13.096 8.41406 13.326 9.18698 13.326C10.1057 13.326 10.6016 12.7798 10.6016 12.0323V8.98477H12.8766V12.0179C12.8766 13.1966 12.1328 14.1598 9.6099 14.1598C8.07865 14.1598 6.88281 13.8291 6.88281 13.8291V19.3348H10.7766C12.2349 19.3348 13.4307 18.1704 13.4307 16.7185V3.66602H9.55156Z" fill="url(#paint4_linear_14535_34252)"/>
</g>
<defs>
<linearGradient id="paint0_linear_14535_34252" x1="17.7866" y1="11.5238" x2="36.7726" y2="11.5238" gradientUnits="userSpaceOnUse">
<stop stop-color="#007940"/>
<stop offset="0.2285" stop-color="#00873F"/>
<stop offset="0.7433" stop-color="#40A737"/>
<stop offset="1" stop-color="#5CB531"/>
</linearGradient>
<linearGradient id="paint1_linear_14535_34252" x1="21.5666" y1="11.5011" x2="28.1205" y2="11.5011" gradientUnits="userSpaceOnUse">
<stop stop-color="#007940"/>
<stop offset="0.2285" stop-color="#00873F"/>
<stop offset="0.7433" stop-color="#40A737"/>
<stop offset="1" stop-color="#5CB531"/>
</linearGradient>
<linearGradient id="paint2_linear_14535_34252" x1="21.5664" y1="10.4057" x2="28.12" y2="10.4057" gradientUnits="userSpaceOnUse">
<stop stop-color="#007940"/>
<stop offset="0.2285" stop-color="#00873F"/>
<stop offset="0.7433" stop-color="#40A737"/>
<stop offset="1" stop-color="#5CB531"/>
</linearGradient>
<linearGradient id="paint3_linear_14535_34252" x1="14.1945" y1="11.5011" x2="20.6578" y2="11.5011" gradientUnits="userSpaceOnUse">
<stop stop-color="#6C2C2F"/>
<stop offset="0.1735" stop-color="#882730"/>
<stop offset="0.5731" stop-color="#BE1833"/>
<stop offset="0.8585" stop-color="#DC0436"/>
<stop offset="1" stop-color="#E60039"/>
</linearGradient>
<linearGradient id="paint4_linear_14535_34252" x1="6.89407" y1="11.5011" x2="13.5491" y2="11.5011" gradientUnits="userSpaceOnUse">
<stop stop-color="#1F286F"/>
<stop offset="0.4751" stop-color="#004E94"/>
<stop offset="0.8261" stop-color="#0066B1"/>
<stop offset="1" stop-color="#006FBC"/>
</linearGradient>
<clipPath id="clip0_14535_34252">
<rect width="35" height="23" fill="white"/>
</clipPath>
</defs>
</svg>
