<svg width="42" height="42" viewBox="0 0 42 42" fill="none" xmlns="http://www.w3.org/2000/svg">
<path d="M21 0C32.598 0 42 9.40202 42 21C42 32.598 32.598 42 21 42C9.40202 42 0 32.598 0 21C0 9.40202 9.40202 0 21 0ZM13.0215 23.3867C12.8191 23.3868 12.6555 23.5506 12.6553 23.7529V30.7764C12.6553 31.1622 13.036 31.5478 13.417 31.5479H16.7188C17.0997 31.5478 17.4814 31.1621 17.4814 30.7764V23.96L23.7041 31.291C23.8311 31.4196 24.2128 31.5478 24.3398 31.5479H28.6582C29.2928 31.5476 29.5466 30.9053 29.166 30.5195L22.5762 23.502C22.5069 23.4282 22.4098 23.3868 22.3086 23.3867H13.0215ZM13.417 10.4561C13.0361 10.4561 12.6556 10.8419 12.6553 11.2275V21.9189C12.6553 22.1215 12.819 22.286 13.0215 22.2861H22.3105C22.4104 22.2861 22.506 22.2449 22.5752 22.1729L28.0225 16.501C28.4035 16.1152 28.1497 15.3438 27.5146 15.3438H23.959C23.5781 15.3438 23.1964 15.6003 22.9424 15.8574L17.4814 21.5166V11.2275C17.4811 10.8419 17.0996 10.4561 16.7188 10.4561H13.417Z" fill="#060606"/>
</svg>
