<svg width="38" height="16" viewBox="0 0 38 16" fill="none" xmlns="http://www.w3.org/2000/svg">
<g clip-path="url(#clip0_14535_34307)">
<path d="M26.7428 4.05748C27.78 4.05748 28.5815 4.34037 29.1944 4.90614C29.8073 5.47184 30.0901 6.22617 30.0901 7.16908V11.695H28.77V10.6579H28.7229C28.1572 11.5065 27.3557 11.9308 26.4128 11.9308C25.6113 11.9308 24.9041 11.695 24.3384 11.2237C23.8198 10.7522 23.4897 10.0922 23.4897 9.385C23.4897 8.63064 23.7726 8.01773 24.3384 7.54628C24.9041 7.07483 25.7056 6.88626 26.6485 6.88626C27.4971 6.88626 28.1572 7.02774 28.6757 7.35772V7.02774C28.6757 6.58768 28.5115 6.1477 28.1829 5.86098L28.1099 5.80195C27.7328 5.47191 27.2614 5.28334 26.7428 5.28334C25.9414 5.28334 25.3284 5.61336 24.9041 6.27341L23.6784 5.51892C24.4327 4.52886 25.4227 4.05748 26.7428 4.05748ZM20.0953 0.851562C20.9413 0.851562 21.7452 1.14594 22.388 1.69491L22.4998 1.79439C23.1598 2.36016 23.4897 3.20882 23.4897 4.10457C23.4897 5.00031 23.1598 5.80181 22.4998 6.41466C21.8397 7.02752 21.0382 7.35757 20.0953 7.35757L17.8324 7.31041V11.695H16.418V0.851562H20.0953ZM26.9313 8.01766C26.3656 8.01766 25.8942 8.15909 25.517 8.44195C25.1399 8.67765 24.9513 9.00765 24.9513 9.43194C24.9513 9.80915 25.1399 10.1391 25.4227 10.3278C25.7528 10.5635 26.1299 10.7049 26.5071 10.7049C27.0351 10.7049 27.5631 10.4995 27.9761 10.1272L28.0629 10.0449C28.5343 9.62058 28.77 9.10197 28.77 8.5362C28.3457 8.20623 27.7328 8.01759 26.9314 8.01759M20.1897 2.17152H17.8325V5.94336H20.1897C20.7083 5.94336 21.2269 5.75479 21.5569 5.37766C22.3112 4.67048 22.3112 3.49186 21.6041 2.7846L21.5569 2.73744C21.1797 2.36031 20.7083 2.12459 20.1897 2.17175M37.7276 4.29321L33.0603 14.9952H31.6459L33.3902 11.2707L30.3258 4.34037H31.8345L34.0503 9.66774H34.0974L36.2661 4.34037H37.7276V4.29321Z" fill="#5F6368"/>
<path d="M12.2217 6.36663C12.2217 5.94233 12.1745 5.51804 12.1274 5.09375H6.23438V7.49817H9.58162C9.44022 8.25243 9.01593 8.95961 8.35591 9.38398V10.9397H10.3831C11.5618 9.85543 12.2218 8.25243 12.2218 6.3667" fill="#4285F4"/>
<path d="M6.23498 12.4479C7.93215 12.4479 9.3465 11.8821 10.3837 10.9392L8.35651 9.38345C7.79074 9.76058 7.08356 9.99631 6.23498 9.99631C4.63198 9.99631 3.21763 8.912 2.74618 7.40332H0.671875V9.00624C1.75619 11.1278 3.87772 12.4479 6.23498 12.4479Z" fill="#34A853"/>
<path d="M2.74616 7.40383C2.46335 6.64949 2.46335 5.8009 2.74616 4.99941V3.39648H0.671863C-0.223954 5.14089 -0.223954 7.21526 0.671863 9.00675L2.74616 7.40383Z" fill="#FBBC04"/>
<path d="M6.23672 2.45411C7.13246 2.45411 7.98105 2.78416 8.64114 3.39701L10.4326 1.60553C9.30108 0.568302 7.79248 -0.0445558 6.28381 0.00253046C3.92655 0.00253046 1.75793 1.32264 0.720703 3.44417L2.79508 5.0471C3.21937 3.53842 4.63372 2.45411 6.23672 2.45411Z" fill="#EA4335"/>
</g>
<defs>
<clipPath id="clip0_14535_34307">
<rect width="37.7279" height="15.0322" fill="white"/>
</clipPath>
</defs>
</svg>
