<svg width="21" height="16" viewBox="0 0 21 16" fill="none" xmlns="http://www.w3.org/2000/svg">
<g clip-path="url(#clip0_11643_2111)">
<path d="M3.74351 15.9173V14.8583C3.74351 14.4523 3.49636 14.1876 3.07272 14.1876C2.86094 14.1876 2.63147 14.2582 2.4726 14.4876C2.3491 14.2935 2.17262 14.1876 1.90785 14.1876C1.73129 14.1876 1.55489 14.2405 1.41362 14.4347V14.2229H1.04297V15.9173H1.41362V14.9818C1.41362 14.6818 1.5725 14.5405 1.81965 14.5405C2.06665 14.5405 2.19031 14.6994 2.19031 14.9818V15.9173H2.56096V14.9818C2.56096 14.6818 2.73736 14.5405 2.96683 14.5405C3.21398 14.5405 3.33748 14.6994 3.33748 14.9818V15.9173H3.74351ZM9.23264 14.2229H8.6326V13.711H8.26194V14.2229H7.92659V14.5582H8.26186V15.3348C8.26186 15.7232 8.42074 15.9526 8.84438 15.9526C9.00325 15.9526 9.17965 15.8997 9.30331 15.8291L9.19734 15.5113C9.09145 15.5819 8.96795 15.5996 8.87967 15.5996C8.70319 15.5996 8.6326 15.4937 8.6326 15.3172V14.5582H9.23264V14.2229ZM12.3744 14.1875C12.1626 14.1875 12.0215 14.2935 11.9332 14.4347V14.2229H11.5625V15.9173H11.9332V14.9642C11.9332 14.6818 12.0567 14.5229 12.2861 14.5229C12.3567 14.5229 12.445 14.5406 12.5156 14.5582L12.6215 14.2053C12.5509 14.1876 12.445 14.1876 12.3744 14.1876M7.62653 14.3641C7.44996 14.2406 7.20289 14.1877 6.93812 14.1877C6.51457 14.1877 6.23219 14.3994 6.23219 14.7348C6.23219 15.0173 6.44397 15.176 6.81463 15.229L6.99111 15.2467C7.18528 15.2819 7.29117 15.3349 7.29117 15.4232C7.29117 15.5467 7.14998 15.635 6.90283 15.635C6.65567 15.635 6.46158 15.5467 6.338 15.4585L6.16152 15.7409C6.35569 15.8821 6.62046 15.9526 6.88514 15.9526C7.37937 15.9526 7.66182 15.7233 7.66182 15.4055C7.66182 15.1055 7.43236 14.9466 7.07931 14.8937L6.90283 14.876C6.74395 14.8583 6.62046 14.8231 6.62046 14.7172C6.62046 14.5936 6.74395 14.523 6.93812 14.523C7.14998 14.523 7.36176 14.6112 7.46765 14.6642L7.62653 14.3641ZM17.4754 14.1877C17.2635 14.1877 17.1223 14.2936 17.034 14.4347V14.223H16.6634V15.9174H17.034V14.9643C17.034 14.6819 17.1576 14.523 17.387 14.523C17.4577 14.523 17.546 14.5407 17.6166 14.5583L17.7224 14.2054C17.6519 14.1877 17.546 14.1877 17.4754 14.1877ZM12.7451 15.0702C12.7451 15.582 13.098 15.9526 13.6453 15.9526C13.8923 15.9526 14.0688 15.8997 14.2453 15.7586L14.0688 15.4585C13.9276 15.5644 13.7864 15.6173 13.6276 15.6173C13.3275 15.6173 13.1157 15.4055 13.1157 15.0702C13.1157 14.7525 13.3275 14.5406 13.6276 14.523C13.7864 14.523 13.9276 14.5759 14.0688 14.6819L14.2453 14.3818C14.0688 14.2406 13.8923 14.1877 13.6453 14.1877C13.098 14.1877 12.7451 14.5583 12.7451 15.0702ZM16.1692 15.0702V14.223H15.7986V14.4347C15.675 14.2759 15.4985 14.1877 15.2691 14.1877C14.7925 14.1877 14.4219 14.5583 14.4219 15.0702C14.4219 15.582 14.7925 15.9526 15.2691 15.9526C15.5161 15.9526 15.6927 15.8644 15.7986 15.7056V15.9174H16.1692V15.0702ZM14.8101 15.0702C14.8101 14.7701 15.0043 14.523 15.322 14.523C15.622 14.523 15.8339 14.7525 15.8339 15.0702C15.8339 15.3702 15.622 15.6173 15.322 15.6173C15.0043 15.5996 14.8101 15.3702 14.8101 15.0702ZM10.38 14.1877C9.88574 14.1877 9.5327 14.5406 9.5327 15.0702C9.5327 15.5997 9.88566 15.9526 10.3976 15.9526C10.6447 15.9526 10.8918 15.8821 11.086 15.7233L10.9094 15.4585C10.7682 15.5644 10.5918 15.635 10.4153 15.635C10.1858 15.635 9.95634 15.5291 9.90335 15.2289H11.1566V15.0878C11.1743 14.5406 10.8566 14.1877 10.38 14.1877ZM10.3799 14.5053C10.6093 14.5053 10.7682 14.6466 10.8035 14.9114H9.92096C9.95625 14.6819 10.1151 14.5053 10.3799 14.5053ZM19.5756 15.0702V13.5522H19.205V14.4347C19.0814 14.2759 18.9049 14.1877 18.6755 14.1877C18.1989 14.1877 17.8283 14.5583 17.8283 15.0702C17.8283 15.582 18.1989 15.9526 18.6755 15.9526C18.9226 15.9526 19.0991 15.8644 19.205 15.7056V15.9174H19.5756V15.0702ZM18.2166 15.0702C18.2166 14.7701 18.4107 14.523 18.7284 14.523C19.0285 14.523 19.2403 14.7525 19.2403 15.0702C19.2403 15.3702 19.0285 15.6173 18.7284 15.6173C18.4107 15.5996 18.2166 15.3702 18.2166 15.0702ZM5.82608 15.0702V14.223H5.45543V14.4347C5.33185 14.2759 5.15537 14.1877 4.9259 14.1877C4.44936 14.1877 4.07871 14.5583 4.07871 15.0702C4.07871 15.582 4.44936 15.9526 4.9259 15.9526C5.17306 15.9526 5.34954 15.8644 5.45543 15.7056V15.9174H5.82608V15.0702ZM4.44936 15.0702C4.44936 14.7701 4.64353 14.523 4.9612 14.523C5.26126 14.523 5.47312 14.7525 5.47312 15.0702C5.47312 15.3702 5.26126 15.6173 4.9612 15.6173C4.64353 15.5996 4.44936 15.3702 4.44936 15.0702Z" fill="#060606"/>
<path d="M7.50195 1.354H13.0618V11.344H7.50195V1.354Z" fill="#FF5F00"/>
<path d="M7.85635 6.35409C7.85635 4.32434 8.80943 2.52398 10.2744 1.35904C9.19777 0.511839 7.83874 0 6.35612 0C2.8436 0 0.00195312 2.84165 0.00195312 6.35409C0.00195312 9.86653 2.8436 12.7082 6.35604 12.7082C7.83866 12.7082 9.19769 12.1963 10.2744 11.3491C8.80943 10.2018 7.85635 8.38384 7.85635 6.35409Z" fill="#E93B3B"/>
<path d="M20.5634 6.35409C20.5634 9.86645 17.7218 12.7082 14.2093 12.7082C12.7267 12.7082 11.3677 12.1963 10.291 11.3491C11.7736 10.1842 12.7091 8.38384 12.7091 6.35409C12.7091 4.32434 11.7559 2.52398 10.291 1.35904C11.3676 0.511839 12.7267 0 14.2093 0C17.7218 0 20.5634 2.85934 20.5634 6.35409Z" fill="#F79E1B"/>
</g>
<defs>
<clipPath id="clip0_11643_2111">
<rect width="20.5867" height="16" fill="white"/>
</clipPath>
</defs>
</svg>
