<svg width="35" height="23" viewBox="0 0 35 23" fill="none" xmlns="http://www.w3.org/2000/svg">
<g clip-path="url(#clip0_14535_34237)">
<path d="M33.8333 0H1.16667C0.522334 0 0 0.514872 0 1.15V21.85C0 22.4851 0.522334 23 1.16667 23H33.8333C34.4777 23 35 22.4851 35 21.85V1.15C35 0.514872 34.4777 0 33.8333 0Z" fill="white"/>
<path fill-rule="evenodd" clip-rule="evenodd" d="M28.4464 15.7141V15.4502H28.3765L28.2962 15.6317L28.2157 15.4502H28.1458V15.7141H28.1952V15.515L28.2705 15.6867H28.3217L28.3972 15.5146V15.7141H28.4464ZM28.0038 15.7141V15.4951H28.0933V15.4506H27.8652V15.4951H27.9547V15.7141H28.0038Z" fill="#F79E1B"/>
<path fill-rule="evenodd" clip-rule="evenodd" d="M14.4824 16.8456H20.5187V6.15332H14.4824V16.8456Z" fill="#FF5F00"/>
<path fill-rule="evenodd" clip-rule="evenodd" d="M28.6614 11.5002C28.6614 15.2558 25.5731 18.3001 21.7633 18.3001C20.1541 18.3001 18.6733 17.7568 17.5 16.8464C19.1045 15.6012 20.1349 13.6693 20.1349 11.5002C20.1349 9.33102 19.1045 7.39907 17.5 6.15391C18.6733 5.24346 20.1541 4.7002 21.7633 4.7002C25.5731 4.7002 28.6614 7.74453 28.6614 11.5002Z" fill="#F79E1B"/>
<path fill-rule="evenodd" clip-rule="evenodd" d="M14.8644 11.5002C14.8644 9.33102 15.8948 7.39907 17.4992 6.15391C16.3259 5.24346 14.8452 4.7002 13.2359 4.7002C9.42617 4.7002 6.33789 7.74453 6.33789 11.5002C6.33789 15.2558 9.42617 18.3001 13.2359 18.3001C14.8452 18.3001 16.3259 17.7568 17.4992 16.8464C15.8948 15.6012 14.8644 13.6693 14.8644 11.5002Z" fill="#EB001B"/>
</g>
<defs>
<clipPath id="clip0_14535_34237">
<rect width="35" height="23" fill="white"/>
</clipPath>
</defs>
</svg>
