<svg width="50" height="16" viewBox="0 0 50 16" fill="none" xmlns="http://www.w3.org/2000/svg">
<path d="M6.02253 16C5.4752 16 4.98171 15.6705 4.772 15.1649L0.103233 3.89418C-0.182403 3.20456 0.145036 2.41395 0.834621 2.12823L5.72469 0.10294C6.05582 -0.0342836 6.4279 -0.0343145 6.75906 0.102854C7.09021 0.240023 7.3533 0.50315 7.49041 0.834327L12.1592 12.1055C12.4444 12.795 12.117 13.5851 11.4278 13.8708L6.53773 15.897C6.37443 15.9649 6.19936 15.9999 6.02253 16ZM6.24197 0.727159C6.16002 0.727294 6.0789 0.743612 6.00328 0.775176L1.11298 2.80047C0.960116 2.86379 0.838673 2.98524 0.775375 3.13812C0.712077 3.29099 0.712111 3.46275 0.77547 3.61559L5.44424 14.887C5.5764 15.2051 5.94101 15.3561 6.25937 15.2248L11.1494 13.1981C11.3023 13.1348 11.4237 13.0133 11.487 12.8604C11.5503 12.7076 11.5503 12.5358 11.4869 12.383L6.81817 1.11269C6.72153 0.879651 6.49425 0.72758 6.24197 0.727159Z" fill="#5A78FF"/>
<path opacity="0.7" d="M7.79729 1.57602L7.125 1.85449L8.97353 6.31725L9.64582 6.03878L7.79729 1.57602Z" fill="url(#paint0_linear_11551_4581)" style="mix-blend-mode:multiply"/>
<path opacity="0.7" d="M11.1773 11.6344L11.8496 11.356L9.75714 6.30428L9.08485 6.58275L11.1773 11.6344Z" fill="url(#paint1_linear_11551_4581)" style="mix-blend-mode:multiply"/>
<path d="M10.3274 8.28966C8.92891 8.86958 7.76119 9.66893 6.99663 10.6325L5.02539 5.87165C5.92456 4.82698 7.06907 4.02194 8.35618 3.5288C9.7547 2.94889 11.1676 2.66821 12.368 2.83175L14.3397 7.59237C12.9652 7.48885 11.5865 7.72846 10.3274 8.28966Z" fill="#5A78FF"/>
<g style="mix-blend-mode:multiply" opacity="0.4">
<path opacity="0.9" d="M10.3274 8.28576C8.92891 8.86567 7.76119 9.66502 6.99663 10.6286L5.02539 5.86775C5.92456 4.82308 7.06907 4.01804 8.35618 3.5249C9.7547 2.94498 11.1676 2.6643 12.368 2.82784L14.3397 7.58847C12.9652 7.48495 11.5865 7.72456 10.3274 8.28576Z" fill="url(#paint2_linear_11551_4581)"/>
<path opacity="0.7" d="M10.3274 8.28576C8.92891 8.86567 7.76119 9.66502 6.99663 10.6286L5.02539 5.86775C5.92456 4.82308 7.06907 4.01804 8.35618 3.5249C9.7547 2.94498 11.1676 2.6643 12.368 2.82784L14.3397 7.58847C12.9652 7.48495 11.5865 7.72456 10.3274 8.28576Z" fill="url(#paint3_linear_11551_4581)"/>
</g>
<path d="M10.9697 9.73814C9.45586 9.73814 8.07009 10.0306 6.99609 10.6277V5.81398C8.22655 5.19306 9.59192 4.88739 10.9697 4.92439C12.4835 4.92439 13.8964 5.20507 14.943 5.81514V10.6289C13.7128 10.0075 12.3474 9.70138 10.9697 9.73814ZM18.7029 9.74254L19.9277 5.87104C19.9406 5.81741 19.9864 5.77811 20.0414 5.77361H20.6561C20.7112 5.78134 20.7576 5.81879 20.7767 5.87104L21.7301 8.31364C21.7486 8.36235 21.7974 8.36699 21.8136 8.31364L22.76 5.87104C22.7792 5.81879 22.8255 5.78134 22.8806 5.77361H23.4953C23.5503 5.77811 23.5962 5.81741 23.609 5.87104L24.8199 9.74254C24.834 9.77235 24.8312 9.8074 24.8126 9.83461C24.7939 9.86182 24.7623 9.8771 24.7294 9.87476H23.9987C23.9469 9.87712 23.9009 9.84189 23.8897 9.79126L23.1126 7.27675C23.101 7.22804 23.0453 7.22804 23.0291 7.27675L22.1012 9.7727C22.0854 9.83279 22.0311 9.8747 21.969 9.87476H21.5399C21.4726 9.87476 21.4378 9.83765 21.4123 9.7727L20.4659 7.27675C20.4473 7.22804 20.3986 7.22804 20.387 7.27675L19.5914 9.79126C19.579 9.84315 19.5309 9.87848 19.4777 9.87476H18.7818C18.7504 9.87429 18.7216 9.85759 18.7055 9.83065C18.6894 9.80371 18.6884 9.77037 18.7029 9.74254ZM25.0518 8.35075C25.0386 7.69121 25.4258 7.08923 26.0314 6.82764C26.637 6.56605 27.3406 6.69684 27.8118 7.15857C28.2829 7.62029 28.4279 8.32117 28.1786 8.93193C27.9293 9.54268 27.3353 9.9419 26.6756 9.94203C26.2463 9.95667 25.8297 9.79481 25.5229 9.49414C25.2161 9.19348 25.0459 8.78027 25.0518 8.35075ZM27.4643 8.35075C27.4352 7.91699 27.0642 7.58633 26.63 7.60709C26.1958 7.62784 25.858 7.99238 25.8705 8.42694C25.8829 8.86149 26.2409 9.20614 26.6756 9.20206C27.1271 9.18323 27.4779 8.80225 27.4596 8.35075H27.4643ZM29.7283 9.62424C29.6679 9.57553 29.6146 9.59409 29.6146 9.67759V9.75646C29.6146 9.81747 29.5665 9.86763 29.5056 9.87012H28.9396C28.8778 9.86775 28.8283 9.81822 28.8259 9.75646V5.88496C28.8283 5.82319 28.8778 5.77367 28.9396 5.77129H29.5357C29.5967 5.77378 29.6448 5.82395 29.6447 5.88496V6.98911C29.6447 7.06798 29.6981 7.09118 29.7839 7.03087C30.0122 6.85984 30.2897 6.76709 30.5749 6.76643C31.4007 6.76643 32.034 7.46232 32.034 8.35771C32.0528 8.76684 31.906 9.16629 31.6266 9.46576C31.3472 9.76523 30.9589 9.93944 30.5494 9.94899C30.245 9.94573 29.9525 9.83007 29.7283 9.62424ZM31.2128 8.35771C31.2357 8.05895 31.0892 7.77258 30.8336 7.61622C30.578 7.45986 30.2564 7.45986 30.0008 7.61622C29.7452 7.77258 29.5987 8.05895 29.6215 8.35771C29.6134 8.57419 29.6926 8.78485 29.8414 8.94233C29.9901 9.09982 30.196 9.1909 30.4126 9.1951C30.631 9.19026 30.8384 9.09833 30.9887 8.93976C31.139 8.78118 31.2197 8.56912 31.2128 8.35075V8.35771ZM32.5327 6.05429C32.5327 5.79807 32.7404 5.59036 32.9966 5.59036C33.2529 5.59036 33.4606 5.79807 33.4606 6.05429C33.4606 6.31051 33.2529 6.51822 32.9966 6.51822C32.7404 6.51822 32.5327 6.31051 32.5327 6.05429ZM32.5745 9.76574V6.95896C32.5744 6.89795 32.6225 6.84778 32.6835 6.84529H33.2796C33.311 6.84404 33.3416 6.85531 33.3647 6.87664C33.3877 6.89796 33.4014 6.92757 33.4026 6.95896V9.75646C33.4002 9.81822 33.3507 9.86775 33.2889 9.87012H32.6835C32.6225 9.86763 32.5744 9.81747 32.5745 9.75646V9.76574ZM34.066 8.84716V5.88496C34.066 5.82395 34.1141 5.77378 34.175 5.77129H34.7712C34.8329 5.77367 34.8825 5.82319 34.8848 5.88496V8.86571C34.8848 9.05825 34.9684 9.18583 35.1794 9.18583C35.2096 9.18583 35.2385 9.1978 35.2598 9.21912C35.2811 9.24043 35.2931 9.26934 35.2931 9.29949V9.79358C35.2906 9.85453 35.2405 9.90265 35.1794 9.9026C34.3861 9.9026 34.066 9.6428 34.066 8.84716ZM35.5158 8.36931C35.5179 7.80908 35.8187 7.29252 36.3049 7.0142C36.7911 6.73589 37.3888 6.7381 37.8729 7.02C38.3571 7.30191 38.654 7.82068 38.652 8.38091C38.652 8.48993 38.6218 8.5804 38.5128 8.5804H36.439C36.3857 8.5804 36.3671 8.61055 36.3717 8.65927C36.4233 9.02262 36.7481 9.28352 37.114 9.25542C37.3342 9.25868 37.5444 9.1634 37.687 8.99561C37.7312 8.93345 37.8032 8.89702 37.8795 8.89819H38.4339C38.5313 8.89819 38.5731 8.96546 38.536 9.06056C38.2108 9.72358 37.4717 10.0751 36.7521 9.90909C36.0325 9.74304 35.5222 9.10314 35.5204 8.36467L35.5158 8.36931ZM37.7171 8.09095C37.7589 8.09095 37.7775 8.07239 37.7705 8.02368C37.7073 7.69074 37.4134 7.45174 37.0746 7.45768C36.7432 7.45737 36.4551 7.68497 36.3787 8.00744C36.3671 8.0492 36.3787 8.09095 36.4274 8.09095H37.7171ZM39.153 9.75646V5.88496C39.153 5.82395 39.2011 5.77378 39.262 5.77129H41.1618C42.0294 5.77129 42.6209 6.27698 42.6209 7.12829C42.6209 7.97961 41.9505 8.50385 41.1201 8.50385H40.1133C40.0827 8.50066 40.0523 8.51179 40.031 8.53401C40.0097 8.55623 39.9999 8.58705 40.0043 8.61751V9.75646C40.002 9.81822 39.9524 9.86775 39.8907 9.87012H39.2644C39.2025 9.86886 39.153 9.81834 39.153 9.75646ZM41.1201 7.80331C41.4796 7.79195 41.7625 7.49249 41.7533 7.13293C41.7585 6.96262 41.6933 6.79771 41.573 6.67701C41.4528 6.55631 41.2881 6.49048 41.1178 6.49503H40.1041C40.0322 6.49503 40.002 6.53214 40.002 6.60405V7.70125C40.002 7.77316 40.0322 7.81027 40.1041 7.81027L41.1201 7.80331ZM42.9132 8.35075C42.8975 7.94051 43.0471 7.54113 43.3283 7.24203C43.6095 6.94293 43.9989 6.76911 44.4094 6.75947C44.7055 6.76108 44.9909 6.87079 45.212 7.06798C45.2653 7.11669 45.3256 7.10973 45.3256 7.03783V6.95896C45.3256 6.89874 45.3744 6.84993 45.4346 6.84993H46.0006C46.0624 6.85231 46.1119 6.90183 46.1143 6.9636V8.95386C46.1143 9.10464 46.1677 9.17191 46.272 9.18583C46.3262 9.18691 46.3705 9.22922 46.3741 9.28325V9.80749C46.3741 9.86386 46.3284 9.90956 46.272 9.90956C45.8731 9.90956 45.6388 9.7959 45.5065 9.56625C45.4694 9.50594 45.4277 9.49434 45.3674 9.55465C45.1126 9.81695 44.7611 9.96291 44.3954 9.95827C43.9841 9.94634 43.5949 9.76905 43.3159 9.46651C43.037 9.16397 42.8918 8.76172 42.9132 8.35075ZM45.3256 8.35075C45.3484 8.05284 45.2024 7.76727 44.9475 7.61134C44.6927 7.45541 44.3719 7.45541 44.1171 7.61134C43.8622 7.76727 43.7162 8.05284 43.739 8.35075C43.7162 8.64866 43.8622 8.93423 44.1171 9.09016C44.3719 9.24609 44.6927 9.24609 44.9475 9.09016C45.2024 8.93423 45.3484 8.64866 45.3256 8.35075ZM46.6548 10.9325V10.4384C46.6573 10.3775 46.7074 10.3294 46.7684 10.3294C47.1565 10.3585 47.5145 10.1192 47.636 9.7495C47.6564 9.6719 47.6481 9.58956 47.6128 9.51754L46.504 7.00767C46.4848 6.97354 46.4854 6.93176 46.5056 6.8982C46.5257 6.86464 46.5623 6.84445 46.6014 6.84529H47.1976C47.2579 6.84529 47.295 6.89401 47.3182 6.95432L48.0141 8.55952C48.0628 8.6871 48.1417 8.68014 48.195 8.55952L48.8585 6.94968C48.8817 6.88937 48.9118 6.85225 48.9721 6.85225H49.5451C49.5808 6.85038 49.615 6.86692 49.6357 6.89608C49.6564 6.92525 49.6607 6.96298 49.6471 6.99607L48.5059 9.69615C48.0906 10.6797 47.6499 11.0462 46.7684 11.0462C46.7067 11.0438 46.6572 10.9943 46.6548 10.9325Z" fill="#5A78FF"/>
<defs>
<linearGradient id="paint0_linear_11551_4581" x1="180.386" y1="327.459" x2="150.204" y2="-24.6763" gradientUnits="userSpaceOnUse">
<stop stop-color="#504678"/>
<stop offset="0.302" stop-color="#504678" stop-opacity="0.616"/>
<stop offset="0.608" stop-color="#504678" stop-opacity="0.283"/>
<stop offset="0.852" stop-color="#504678" stop-opacity="0.076"/>
<stop offset="1" stop-color="#504678" stop-opacity="0"/>
</linearGradient>
<linearGradient id="paint1_linear_11551_4581" x1="-179.952" y1="-359.008" x2="-161.023" y2="35.5556" gradientUnits="userSpaceOnUse">
<stop stop-color="#504678"/>
<stop offset="0.302" stop-color="#504678" stop-opacity="0.616"/>
<stop offset="0.608" stop-color="#504678" stop-opacity="0.283"/>
<stop offset="0.852" stop-color="#504678" stop-opacity="0.076"/>
<stop offset="1" stop-color="#504678" stop-opacity="0"/>
</linearGradient>
<linearGradient id="paint2_linear_11551_4581" x1="132.651" y1="523.351" x2="502.03" y2="271.538" gradientUnits="userSpaceOnUse">
<stop stop-color="#504678"/>
<stop offset="0.179" stop-color="#504678" stop-opacity="0.872"/>
<stop offset="0.526" stop-color="#504678" stop-opacity="0.536"/>
<stop offset="1" stop-color="#504678" stop-opacity="0"/>
</linearGradient>
<linearGradient id="paint3_linear_11551_4581" x1="449.543" y1="277.195" x2="433.159" y2="146.148" gradientUnits="userSpaceOnUse">
<stop stop-color="#504678"/>
<stop offset="0.643" stop-color="#504678" stop-opacity="0.332"/>
<stop offset="1" stop-color="#504678" stop-opacity="0"/>
</linearGradient>
</defs>
</svg>
