<svg width="34" height="23" viewBox="0 0 34 23" fill="none" xmlns="http://www.w3.org/2000/svg">
<g clip-path="url(#clip0_14535_34273)">
<path d="M32.8667 0H1.13333C0.507411 0 0 0.514872 0 1.15V21.85C0 22.4851 0.507411 23 1.13333 23H32.8667C33.4926 23 34 22.4851 34 21.85V1.15C34 0.514872 33.4926 0 32.8667 0Z" fill="white"/>
<path fill-rule="evenodd" clip-rule="evenodd" d="M21.6837 4.07617C20.8943 4.10107 19.929 4.7319 19.7532 5.50979L17.0852 17.4904C16.9094 18.2756 17.3877 18.9145 18.1571 18.9262H24.084C24.8417 18.8882 25.578 18.2646 25.7508 17.4956L28.4188 5.51482C28.5976 4.72167 28.1077 4.07764 27.3255 4.07764L21.6837 4.07617Z" fill="#01798A"/>
<path fill-rule="evenodd" clip-rule="evenodd" d="M17.0847 17.4909L19.7527 5.51028C19.9285 4.73239 20.8938 4.10156 21.6688 4.07744L19.4257 4.07597L15.3843 4.0752C14.607 4.09132 13.6292 4.72658 13.4534 5.51028L10.7846 17.4909C10.6082 18.2761 11.0871 18.915 11.8561 18.9267H18.1566C17.3871 18.915 16.9089 18.2761 17.0847 17.4909Z" fill="#024381"/>
<path fill-rule="evenodd" clip-rule="evenodd" d="M10.7843 17.4903L13.4531 5.50971C13.6288 4.72601 14.6067 4.09075 15.3839 4.07462L10.2066 4.07324C9.42503 4.07324 8.42299 4.7158 8.24438 5.50971L5.57555 17.4903C5.55931 17.5635 5.55031 17.6351 5.54492 17.7052V17.9275C5.59717 18.4998 6.02789 18.9166 6.647 18.9262H11.8557C11.0868 18.9144 10.6078 18.2755 10.7843 17.4903Z" fill="#DD0228"/>
<path fill-rule="evenodd" clip-rule="evenodd" d="M15.4927 12.805H15.5907C15.6807 12.805 15.7413 12.7743 15.7697 12.7136L16.0243 12.3269H16.7061L16.5639 12.5813H17.3814L17.2777 12.971H16.305C16.1929 13.142 16.055 13.2224 15.8892 13.2129H15.3825L15.4927 12.805ZM15.3807 13.3635H17.1718L17.0576 13.7868H16.3373L16.2274 14.1954H16.9283L16.8142 14.6187H16.1133L15.9504 15.2225C15.9101 15.3234 15.9631 15.3688 16.1086 15.3585H16.6798L16.574 15.7518H15.4773C15.2694 15.7518 15.1981 15.6311 15.2633 15.3892L15.4715 14.6187H15.0234L15.1373 14.1954H15.5853L15.6952 13.7868H15.2669L15.3807 13.3635ZM18.2394 12.3241L18.2112 12.5719C18.2112 12.5719 18.5491 12.3145 18.8559 12.3145H19.9898L19.5561 13.9073C19.5202 14.0894 19.366 14.18 19.0937 14.18H17.8085L17.5075 15.2985C17.4902 15.3585 17.5147 15.3892 17.5795 15.3892H17.8324L17.7394 15.7364H17.0966C16.8498 15.7364 16.7472 15.6611 16.7879 15.5098L17.6385 12.3241H18.2394ZM19.1996 12.7743H18.1876L18.0665 13.2042C18.0665 13.2042 18.2351 13.0807 18.5167 13.0762C18.7976 13.0718 19.1182 13.0762 19.1182 13.0762L19.1996 12.7743ZM18.833 13.7714C18.9078 13.7817 18.9496 13.7517 18.9547 13.6807L19.0166 13.4542H18.0031L17.9181 13.7714H18.833ZM18.1493 14.286H18.7335L18.7227 14.5426H18.8782C18.9568 14.5426 18.9958 14.5171 18.9958 14.4666L19.0418 14.3007H19.5274L19.4625 14.5426C19.4077 14.7444 19.2623 14.8497 19.026 14.8599H18.7148L18.7133 15.2985C18.7076 15.3688 18.7702 15.4046 18.8992 15.4046H19.1916L19.0972 15.7518H18.3957C18.199 15.7613 18.1026 15.6662 18.1046 15.4645L18.1493 14.286Z" fill="white"/>
<path fill-rule="evenodd" clip-rule="evenodd" d="M20.633 12.8224L20.7684 12.3386H21.4535L21.4239 12.5161C21.4239 12.5161 21.7739 12.3386 22.026 12.3386H22.8731L22.7385 12.8224H22.6052L21.9662 15.1047H22.0995L21.9727 15.5579H21.8395L21.784 15.7546H21.1206L21.176 15.5579H19.8672L19.9947 15.1047H20.1259L20.7654 12.8224H20.633ZM21.372 12.8224L21.1977 13.4401C21.1977 13.4401 21.496 13.324 21.7531 13.2911C21.8099 13.0754 21.8842 12.8224 21.8842 12.8224H21.372ZM21.1169 13.7296L20.942 14.3766C20.942 14.3766 21.2726 14.2114 21.4995 14.1975C21.565 13.9475 21.6306 13.7296 21.6306 13.7296H21.1169ZM21.2452 15.1047L21.3763 14.6354H20.865L20.7332 15.1047H21.2452ZM22.902 12.3086H23.546L23.5733 12.5497C23.5691 12.6111 23.605 12.6405 23.6814 12.6405H23.7951L23.68 13.0491H23.2067C23.0259 13.0585 22.933 12.9884 22.9244 12.837L22.902 12.3086ZM24.7993 13.1851L24.6769 13.6237H24.0127L23.8989 14.0315H24.5624L24.4392 14.4694H23.7002L23.533 14.7261H23.8947L23.9782 15.2399C23.9882 15.2911 24.0329 15.316 24.1093 15.316H24.2216L24.1036 15.7392H23.7059C23.4999 15.7495 23.3933 15.6793 23.3846 15.528L23.2888 15.0587L22.9596 15.5579C22.8818 15.699 22.7622 15.7649 22.601 15.7546H21.9937L22.1118 15.3313H22.3013C22.3791 15.3313 22.4438 15.2962 22.5022 15.2253L23.0173 14.4694H22.3531L22.4762 14.0315H23.1966L23.3112 13.6237H22.5901L22.7133 13.1851H24.7993Z" fill="white"/>
<path fill-rule="evenodd" clip-rule="evenodd" d="M25.4582 11.7639C25.2421 12.2302 25.0361 12.5021 24.9152 12.6286C24.7941 12.7536 24.5543 13.0446 23.9766 13.0226L24.0263 12.6666C24.5124 12.5146 24.7753 11.8296 24.9252 11.5262L24.7466 9.29223L25.1226 9.28711H25.4381L25.472 10.6885L26.0633 9.28711H26.6619L25.4582 11.7639Z" fill="white"/>
<path fill-rule="evenodd" clip-rule="evenodd" d="M23.7854 9.45554L23.5476 9.62151C23.2991 9.42417 23.0722 9.30207 22.6344 9.50818C22.0378 9.7889 21.5394 11.9418 23.1817 11.2327L23.2754 11.3452L23.9215 11.3621L24.3458 9.40583L23.7854 9.45554ZM23.418 10.525C23.3142 10.8357 23.0824 11.0411 22.9009 10.9827C22.7194 10.9256 22.6545 10.6259 22.7597 10.3145C22.8634 10.0031 23.0967 9.79841 23.2768 9.85689C23.4583 9.9139 23.5238 10.2136 23.418 10.525Z" fill="white"/>
<path fill-rule="evenodd" clip-rule="evenodd" d="M20.0492 8H21.5216C21.8047 8 22.0236 8.06512 22.1741 8.19297C22.324 8.3224 22.399 8.5081 22.399 8.75006V8.75733C22.399 8.80336 22.396 8.85528 22.3917 8.91155C22.3844 8.96712 22.375 9.02338 22.3629 9.08189C22.2981 9.40211 22.1475 9.65942 21.9149 9.8546C21.6814 10.049 21.4049 10.147 21.0865 10.147H20.2969L20.0528 11.3627H19.3691L20.0492 8ZM20.4172 9.56222H21.0721C21.2427 9.56222 21.3781 9.52197 21.4769 9.44233C21.5749 9.36192 21.6397 9.23913 21.6757 9.07246C21.6814 9.04167 21.685 9.01393 21.6893 8.98837C21.6916 8.96428 21.6944 8.94007 21.6944 8.91675C21.6944 8.79755 21.6527 8.7113 21.5691 8.6572C21.4855 8.60231 21.3545 8.57606 21.1729 8.57606H20.6168L20.4172 9.56222Z" fill="white"/>
<path fill-rule="evenodd" clip-rule="evenodd" d="M17.5415 9.28604H18.0487L17.9911 9.58576L18.063 9.50023C18.2274 9.32189 18.4276 9.2334 18.6624 9.2334C18.8757 9.2334 19.0298 9.2963 19.1255 9.42272C19.22 9.54922 19.2474 9.72393 19.2012 9.94835L18.9232 11.3621H18.4016L18.6538 10.0807C18.6797 9.94835 18.6725 9.84965 18.6329 9.78603C18.5918 9.72244 18.5175 9.69104 18.4089 9.69104C18.2749 9.69104 18.1626 9.73339 18.0696 9.81751C17.9773 9.9023 17.9162 10.02 17.8874 10.1698L17.654 11.3621H17.1328L17.5415 9.28604Z" fill="white"/>
<path fill-rule="evenodd" clip-rule="evenodd" d="M15.1438 11.2042C14.9968 11.0617 14.9226 10.8694 14.9219 10.6253C14.9219 10.5836 14.9244 10.5361 14.9298 10.4842C14.9352 10.4315 14.9421 10.3804 14.9518 10.3329C15.0184 9.99588 15.1604 9.72833 15.3789 9.53093C15.5972 9.33284 15.8605 9.2334 16.1688 9.2334C16.4213 9.2334 16.6215 9.30507 16.7682 9.44833C16.9147 9.59237 16.9881 9.78678 16.9881 10.0339C16.9881 10.0763 16.985 10.1253 16.9795 10.1779C16.973 10.2313 16.9652 10.2824 16.9561 10.3329C16.891 10.6647 16.7495 10.9294 16.5308 11.1231C16.3122 11.3183 16.0496 11.4155 15.7435 11.4155C15.4899 11.4155 15.2904 11.3453 15.1438 11.2042ZM16.2146 10.7934C16.3136 10.6845 16.3846 10.5192 16.4278 10.2992C16.4343 10.2649 16.44 10.2291 16.4436 10.1932C16.4472 10.1581 16.4486 10.1253 16.4486 10.0953C16.4486 9.96736 16.4165 9.86797 16.3521 9.79776C16.288 9.72684 16.1969 9.69179 16.0792 9.69179C15.9235 9.69179 15.7968 9.74728 15.6974 9.85842C15.5972 9.96957 15.5263 10.1377 15.4816 10.3614C15.4755 10.3957 15.4704 10.4301 15.4658 10.4637C15.4622 10.4981 15.4611 10.5303 15.4618 10.5595C15.4618 10.6867 15.4939 10.7847 15.5583 10.8541C15.6224 10.9236 15.7131 10.9579 15.8324 10.9579C15.9887 10.9579 16.1155 10.9031 16.2146 10.7934Z" fill="white"/>
<path fill-rule="evenodd" clip-rule="evenodd" d="M14.0836 9.28709H14.6455L14.2053 11.3617H13.6445L14.0836 9.28709ZM14.2604 8.53125H14.8273L14.7215 9.03483H14.1546L14.2604 8.53125Z" fill="white"/>
<path fill-rule="evenodd" clip-rule="evenodd" d="M11.731 9.28604H12.2378L12.1798 9.58576L12.2525 9.50023C12.4168 9.32189 12.6163 9.2334 12.8519 9.2334C13.0651 9.2334 13.2189 9.2963 13.3154 9.42272C13.4105 9.54922 13.4364 9.72393 13.3914 9.94835L13.1123 11.3621H12.5915L12.8436 10.0807C12.8695 9.94835 12.8624 9.84965 12.8223 9.78603C12.7828 9.72244 12.7071 9.69104 12.5979 9.69104C12.464 9.69104 12.3512 9.73339 12.2594 9.81751C12.1672 9.9023 12.1063 10.02 12.0764 10.1698L11.8441 11.3621H11.3223L11.731 9.28604Z" fill="white"/>
<path fill-rule="evenodd" clip-rule="evenodd" d="M11.0703 10.2016C10.9911 10.5956 10.8074 10.8982 10.5225 11.1132C10.2401 11.3244 9.87594 11.4304 9.43009 11.4304C9.0105 11.4304 8.70289 11.3222 8.50659 11.1051C8.37045 10.9508 8.30273 10.7549 8.30273 10.5181C8.30273 10.4201 8.31429 10.3149 8.33733 10.2016L8.81239 7.87695H9.52985L9.06127 10.1753C9.04685 10.2389 9.0411 10.2981 9.04184 10.3514C9.0411 10.4692 9.06989 10.5656 9.12823 10.6409C9.21323 10.7528 9.35118 10.8083 9.54317 10.8083C9.76391 10.8083 9.94581 10.7535 10.087 10.6431C10.2282 10.5335 10.3204 10.3778 10.3618 10.1753L10.8319 7.87695H11.5457L11.0703 10.2016Z" fill="white"/>
</g>
<defs>
<clipPath id="clip0_14535_34273">
<rect width="34" height="23" fill="white"/>
</clipPath>
</defs>
</svg>
