<svg width="31" height="10" viewBox="0 0 31 10" fill="none" xmlns="http://www.w3.org/2000/svg">
<g clip-path="url(#clip0_11643_2109)">
<path d="M15.9554 3.18503C15.9378 4.5725 17.1919 5.34672 18.1366 5.80708C19.1072 6.27937 19.4332 6.58226 19.4293 7.00467C19.4221 7.65106 18.6551 7.93636 17.9374 7.94744C16.6852 7.96684 15.9572 7.60937 15.3784 7.33901L14.9273 9.44973C15.508 9.71732 16.5833 9.9507 17.6984 9.96094C20.3158 9.96094 22.0282 8.66889 22.0375 6.66564C22.0478 4.12323 18.5209 3.9825 18.545 2.84612C18.5533 2.50154 18.8821 2.13383 19.6026 2.04034C19.9592 1.99311 20.9437 1.95696 22.0598 2.47094L22.4979 0.428769C21.8976 0.210215 21.1262 0.000937462 20.1657 0.000937462C17.7021 0.000937462 15.9693 1.31058 15.9554 3.18503ZM26.7073 0.176841C26.2293 0.176841 25.8266 0.455636 25.6468 0.883467L21.9079 9.81094H24.5234L25.0439 8.3725H28.24L28.542 9.81094H30.8473L28.8356 0.176841H26.7073ZM27.0732 2.77937L27.828 6.39708H25.7608L27.0732 2.77937ZM12.7841 0.176961L10.7225 9.81082H13.2149L15.2756 0.176721L12.7841 0.176961ZM9.09704 0.176961L6.50282 6.73419L5.45342 1.15865C5.33029 0.536239 4.84403 0.176841 4.30403 0.176841H0.0633038L0.00390625 0.4566C0.874509 0.645515 1.86367 0.950214 2.46294 1.27624C2.82969 1.4754 2.93427 1.64949 3.05475 2.12274L5.04234 9.81094H7.6762L11.7143 0.176841L9.09704 0.176961Z" fill="url(#paint0_linear_11643_2109)"/>
</g>
<defs>
<linearGradient id="paint0_linear_11643_2109" x1="1418" y1="29.9407" x2="1446.83" y2="-992.966" gradientUnits="userSpaceOnUse">
<stop stop-color="#222357"/>
<stop offset="1" stop-color="#254AA5"/>
</linearGradient>
<clipPath id="clip0_11643_2109">
<rect width="30.85" height="10" fill="white"/>
</clipPath>
</defs>
</svg>
